<?xml version="1.0" encoding="utf-8"?>
<!-- Svg Vector Icons : http://www.onlinewebfonts.com/icon -->
<!DOCTYPE svg PUBLIC "-//W3C//DTD SVG 1.1//EN" "http://www.w3.org/Graphics/SVG/1.1/DTD/svg11.dtd">
<svg version="1.1" xmlns="http://www.w3.org/2000/svg" xmlns:xlink="http://www.w3.org/1999/xlink" x="0px" y="0px" viewBox="0 0 1000 1000" enable-background="new 0 0 1000 1000" xml:space="preserve">
<metadata> Svg Vector Icons : http://www.onlinewebfonts.com/icon </metadata>
<g><g transform="translate(0.000000,511.000000) scale(0.100000,-0.100000)"><path d="M3097.1,3511.5V2012.9H1598.5H100v-190.3v-190.3h1498.5h1498.5V110v-1522.3H1598.5H100v-190.3v-190.3h1498.5h1498.5v-1498.5V-4790h190.3h190.3v1498.5v1498.5H5000h1522.3v-1498.5V-4790h190.3h190.3v1498.5v1498.5h1498.5H9900v190.3v190.3H8401.5H6902.9V110v1522.3h1498.5H9900v190.3v190.3H8401.5H6902.9v1498.5V5010h-190.3h-190.3V3511.5V2012.9H5000H3477.7v1498.5V5010h-190.3h-190.3V3511.5z M6522.3,110v-1522.3H5000H3477.7V110v1522.3H5000h1522.3V110z"/><path d="M4119.9,978.2l-130.8-130.8l368.7-368.7L4726.5,110l-368.7-368.7l-368.7-368.7L4127-763l135.6-137.9l368.7,368.7L5000-163.5l368.7-368.7l368.7-368.7L5873-763l137.9,135.6l-368.7,368.7L5273.5,110l368.7,368.7l368.7,368.7L5873,983l-135.6,138l-368.7-368.7L5000,383.5l-363.9,363.9c-199.8,197.4-368.7,361.6-373.5,361.6C4255.5,1109,4191.3,1049.6,4119.9,978.2z"/><path d="M8365.8,1282.7c-264-38-475.7-140.3-670.8-323.5c-157-147.5-249.8-292.6-316.4-492.4c-45.2-130.8-50-192.7-42.8-406.7c9.5-230.7,19-268.8,97.5-435.3c204.6-432.9,594.7-682.6,1063.3-687.4c559-2.4,1022.8,366.3,1153.6,915.8c38,164.1,47.6,447.2,14.3,447.2c-11.9,0-33.3,50-47.6,109.4c-95.1,373.4-404.4,708.8-758.8,818.2C8710.7,1273.2,8480,1299.3,8365.8,1282.7z M8789.2,856.9c152.2-50,354.4-237.9,437.7-409.1c57.1-116.6,66.6-164.1,66.6-337.8c0-173.6-9.5-221.2-66.6-337.8c-85.6-176-285.4-356.8-449.6-413.9c-78.5-26.2-190.3-42.8-299.7-40.4c-145.1,2.4-199.8,14.3-325.9,76.1c-185.5,92.8-323.5,242.6-394.8,428.1c-73.8,197.4-57.1,487.6,38,663.6C7990,845,8377.7,987.7,8789.2,856.9z"/><path d="M4667-2263.9c-287.8-97.5-513.8-268.8-668.4-506.7c-240.2-375.8-228.3-894.4,30.9-1282.1c121.3-180.8,252.1-295,454.3-392.5c340.2-166.5,694.6-164.1,1037.1,2.4c371.1,183.2,599.4,516.2,649.4,946.7c23.8,185.5,21.4,242.6-2.4,280.7c-16.6,28.5-47.6,104.6-66.6,171.3c-92.8,321.1-325.9,597-618.4,735c-147.5,69-185.5,76.1-423.4,80.9C4857.3-2223.4,4769.3-2230.6,4667-2263.9z M5349.7-2658.7c392.5-183.1,559-692.2,361.6-1101.3c-26.2-54.7-107-154.6-178.4-221.2c-333-302.1-815.9-275.9-1125.1,59.5c-145.1,161.7-202.2,316.4-199.8,549.5c4.8,321.1,197.4,608.9,490,720.8C4883.4-2580.2,5185.5-2582.6,5349.7-2658.7z"/><path d="M694.7-2520.8L563.8-2654l366.3-356.8l366.3-356.8l-366.3-366.3l-366.3-366.3L697-4233.4l135.6-133.2l371.1,361.6l371.1,363.9l371.1-363.9l371.1-363.9l133.2,133.2l135.6,135.6l-366.3,366.3l-368.7,368.7l368.7,356.8l366.3,354.4l-135.6,140.4l-138,137.9l-368.7-368.7l-368.7-368.7l-363.9,363.9c-199.8,197.4-368.7,361.6-373.5,361.6C830.2-2387.6,766-2447,694.7-2520.8z"/></g></g>
</svg>